<svg width="657" height="185" viewBox="0 0 657 185" fill="none" xmlns="http://www.w3.org/2000/svg"><path d="M11.5 150.207l.004-113.832c0-11.086 9.021-20.105 20.11-20.105l553.096-.012c7.771 0 14.815 4.5 18.064 11.54l37.658 81.611c5.921 12.832-3.041 27.653-17.189 28.425L32.486 170.068c-11.42.623-20.986-8.431-20.985-19.861z" fill="#FF8D07"/><path d="M4.169 146.565l.003-113.832c0-11.086 9.021-20.105 20.11-20.105l553.096-.013c7.771 0 14.815 4.5 18.064 11.54l37.658 81.611c5.921 12.833-3.041 27.653-17.189 28.425L25.154 166.426c-11.42.623-20.986-8.431-20.985-19.861z" stroke="#000"/></svg>