<svg width="372" height="164" viewBox="0 0 372 164" fill="none" xmlns="http://www.w3.org/2000/svg"><path d="M360.28 107.978l.05-67.94c.008-11.543-9.737-20.72-21.264-20.021L29.905 38.74c-10.534.638-18.74 9.346-18.747 19.895l-.044 60.255c-.008 11.347 9.423 20.45 20.768 20.045l309.156-11.04c10.738-.383 19.234-9.178 19.242-19.918z" fill="#FF8D07"/><path d="M359.904 104.992l.049-67.94c.009-11.543-9.737-20.719-21.263-20.02L29.528 35.754c-10.533.638-18.739 9.346-18.746 19.895l-.044 60.255c-.008 11.348 9.423 20.451 20.768 20.045l309.155-11.039c10.739-.384 19.235-9.178 19.243-19.919z" stroke="#000"/></svg>