<svg width="359" height="145" viewBox="0 0 359 145" fill="none" xmlns="http://www.w3.org/2000/svg"><path d="M353.496 116.829l-.021-92.808c-.002-11.433-9.575-20.586-20.996-20.076L22.222 17.779c-10.643.474-19.003 9.21-19.01 19.862l-.042 68.316c-.007 10.821 8.598 19.729 19.418 20.101l310.322 10.658c11.272.388 20.589-8.612 20.586-19.887z" fill="#FF8D07"/><path d="M354.505 113.821l-.027-92.81C354.474 9.58 344.902.427 333.48.935L23.027 14.754c-10.643.474-19.002 9.208-19.008 19.861l-.039 68.314c-.006 10.822 8.6 19.731 19.42 20.103l310.52 10.675c11.273.387 20.588-8.612 20.585-19.886z" stroke="#000"/></svg>