<svg width="670" height="276" viewBox="0 0 670 276" fill="none" xmlns="http://www.w3.org/2000/svg"><path d="M634.659 178.13l13.748-119.374c1.422-12.35-8.424-22.607-20.69-21.552L20.771 89.414C9.448 90.39.841 100.663 1.85 112.005l7.907 88.96c.915 10.296 9.49 17.882 19.782 17.498l585.291-21.795c10.125-.377 18.657-8.353 19.83-18.537z" fill="#FF8D07"/><path d="M639.619 171.135l13.747-119.374c1.423-12.35-8.424-22.607-20.689-21.551L25.731 82.42c-11.324.974-19.93 11.248-18.923 22.589l7.907 88.96c.915 10.296 9.491 17.882 19.783 17.499l585.291-21.796c10.124-.377 18.657-8.353 19.83-18.537z" stroke="#000"/></svg>