<svg width="630" height="193" viewBox="0 0 630 193" fill="none" xmlns="http://www.w3.org/2000/svg"><path d="M109.999 16.575l519-10.176-9.584 151.181h-479.19L109.999 16.575z" fill="#fff"/><path d="M133.591 156.905l-11.449-8.285L93 9.285 615.47 1 629 9.285" stroke="#fff"/><path d="M468.999 191.325l-170-49.943h110l60 49.943z" fill="#fff"/><path d="M296.999 144.756l163 47.244" stroke="#fff"/><path d="M7.758 71.398l43.281 4.147C37.622 72.585 4.75 59.458 2.791 61.16c-1.567 1.363 2.658 7.393 4.967 10.238zm4.33 56.36l41.505-12.855c-13.523 2.442-48.959 3.013-50.095 5.336-.91 1.859 5.348 5.787 8.59 7.519zm34.964 45.513L66.96 156.67c-6.942 4.077-26.656 10.318-26.686 12.276-.025 1.566 4.51 3.536 6.78 4.325z" fill="#fff"/></svg>