<svg width="244" height="168" viewBox="0 0 244 168" fill="none" xmlns="http://www.w3.org/2000/svg"><path fill-rule="evenodd" clip-rule="evenodd" d="M244 37L0 44.471 14.21 148h150.961L212 168l-16.528-20h44.022L244 37z" fill="#fff"/><path d="M229.144 3.164l-9.497 21.513c4.012-6.075 17.591-18.878 16.815-20.521-.621-1.315-5.137-1.21-7.318-.992zm-39.158 3.931l-2.353 16.929c-.14-5.3-3.533-18.467-2.445-19.174.871-.566 3.562 1.26 4.798 2.245zm-43.128 5.964l3.971 11.878c-1.994-2.764-9.557-6.319-8.875-7.892.545-1.259 3.497-3.182 4.904-3.986z" fill="#fff"/></svg>