<svg width="358" height="124" viewBox="0 0 358 124" fill="none" xmlns="http://www.w3.org/2000/svg">
<path d="M5.02457 96.4398L5.00416 24.6413C5.00095 13.3475 14.3492 4.21763 25.6421 4.48547L335.709 11.8395C346.504 12.0956 355.078 20.8734 355.079 31.6695L355.081 87.0194C355.081 97.8964 346.383 106.848 335.504 107.167L25.4557 116.262C14.2454 116.591 5.02776 107.648 5.02457 96.4398Z" fill="#FF8D07"/>
<path d="M4.02879 93.4441L4.00558 21.6455C4.00193 10.3517 13.3498 1.22204 24.6427 1.4902L334.709 8.85297C345.504 9.10932 354.079 17.8874 354.08 28.6836L354.084 84.0335C354.085 94.9106 345.387 103.862 334.508 104.181L24.4606 113.267C13.2504 113.595 4.03242 104.652 4.02879 93.4441Z" stroke="black"/>
</svg>
