<svg width="372" height="164" viewBox="0 0 372 164" fill="none" xmlns="http://www.w3.org/2000/svg">
<path d="M360.28 107.978L360.33 40.0381C360.338 28.4948 350.593 19.3187 339.066 20.0168L29.9049 38.7408C19.3714 39.3788 11.1657 48.0871 11.158 58.6358L11.1142 118.891C11.1059 130.238 20.537 139.341 31.8822 138.936L341.038 127.896C351.776 127.513 360.272 118.718 360.28 107.978Z" fill="#FF8D07"/>
<path d="M359.904 104.992L359.953 37.0525C359.962 25.5093 350.216 16.3332 338.69 17.0313L29.5284 35.7553C18.9949 36.3933 10.7892 45.1015 10.7815 55.6503L10.7377 115.905C10.7295 127.253 20.1606 136.356 31.5058 135.95L340.661 124.911C351.4 124.527 359.896 115.733 359.904 104.992Z" stroke="black"/>
</svg>
