<svg width="351" height="93" viewBox="0 0 351 93" fill="none" xmlns="http://www.w3.org/2000/svg">
<path d="M0.00012207 71.4543V32.6712C0.00012207 21.8071 8.67298 12.9298 19.5342 12.6766L328.473 5.47695C339.698 5.21536 348.939 14.2434 348.939 25.4715V48.4348C348.939 58.904 340.865 67.6016 330.425 68.3795L21.4862 91.399C9.88722 92.2633 0.00012207 83.0855 0.00012207 71.4543Z" fill="#FF8D07"/>
<path d="M1.06152 67.4543V28.6712C1.06152 17.8071 9.73438 8.92975 20.5956 8.67664L329.534 1.47695C340.759 1.21536 350 10.2434 350 21.4715V44.4348C350 54.904 341.927 63.6016 331.486 64.3795L22.5476 87.399C10.9486 88.2633 1.06152 79.0855 1.06152 67.4543Z" stroke="black"/>
</svg>
