<svg width="359" height="145" viewBox="0 0 359 145" fill="none" xmlns="http://www.w3.org/2000/svg">
<path d="M353.496 116.829L353.475 24.0205C353.473 12.5879 343.9 3.43539 332.479 3.94467L22.2216 17.779C11.5788 18.2535 3.2195 26.9882 3.21277 37.6414L3.16962 105.957C3.16279 116.778 11.768 125.686 22.5879 126.058L332.91 136.716C344.182 137.104 353.499 128.104 353.496 116.829Z" fill="#FF8D07"/>
<path d="M354.505 113.821L354.478 21.0118C354.474 9.57927 344.902 0.426005 333.48 0.934426L23.0269 14.7542C12.3841 15.2279 4.02526 23.9619 4.0192 34.615L3.98025 102.929C3.97408 113.751 12.5805 122.66 23.4008 123.032L333.92 133.707C345.193 134.094 354.508 125.095 354.505 113.821Z" stroke="black"/>
</svg>
