<svg width="670" height="276" viewBox="0 0 670 276" fill="none" xmlns="http://www.w3.org/2000/svg">
<path d="M634.659 178.13L648.407 58.7556C649.829 46.4058 639.983 36.1493 627.717 37.2044L20.7712 89.4145C9.44789 90.3886 0.841073 100.663 1.84901 112.004L9.75583 200.964C10.671 211.26 19.2467 218.846 29.5381 218.462L614.829 196.667C624.954 196.29 633.486 188.314 634.659 178.13Z" fill="#FF8D07"/>
<path d="M639.619 171.135L653.366 51.7608C654.789 39.411 644.942 29.1545 632.677 30.2096L25.7307 82.4197C14.4074 83.3938 5.80055 93.6685 6.80848 105.009L14.7153 193.969C15.6304 204.265 24.2061 211.851 34.4976 211.468L619.789 189.672C629.913 189.295 638.446 181.319 639.619 171.135Z" stroke="black"/>
</svg>
