<svg width="725" height="171" viewBox="0 0 725 171" fill="none" xmlns="http://www.w3.org/2000/svg">
<path d="M98.3 7.80788L511.085 18.8405L503.547 163H126.653L98.3 7.80788Z" fill="white"/>
<path d="M579.773 37.9637C550.335 44.8284 490.544 58.8521 486.88 60.0289V143.877L542.485 111.514L551.644 143.877L599.399 111.514V143.877L725 76.9456L634.724 96.0688V71.0615L572.577 90.1847L579.773 37.9637Z" fill="white"/>
<path d="M127.689 155.879L123.192 152.991L93.002 1L499.929 13.9969L504.747 17.6071" stroke="white"/>
<path d="M514.585 48.6552C517.007 45.9321 565.548 35.0394 589.516 29.9335L583.461 80.9927L641.741 63.973V86.0986L712.132 75.0358" stroke="white"/>
<path d="M16.5989 12.689L45.7029 30.7322C37.6336 23.7572 21.2031 1.82256 18.8111 2.56558C16.8976 3.15999 16.539 9.56221 16.5989 12.689Z" fill="white"/>
<path d="M7.86843 64.5665L51.7691 68.8268C38.1602 65.7854 4.81676 52.3 2.83049 54.0492C1.24147 55.4485 5.52702 61.6438 7.86843 64.5665Z" fill="white"/>
<path d="M12.2615 122.467L54.3595 109.261C40.6432 111.769 4.70056 112.356 3.5477 114.742C2.62541 116.652 8.97259 120.688 12.2615 122.467Z" fill="white"/>
<path d="M47.7248 169.224L67.9157 152.169C60.8744 156.358 40.8789 162.769 40.8482 164.78C40.8237 166.389 45.4224 168.413 47.7248 169.224Z" fill="white"/>
</svg>
