<svg width="358" height="124" viewBox="0 0 358 124" fill="none" xmlns="http://www.w3.org/2000/svg"><path d="M5.025 96.44l-.02-71.799C5 13.348 14.348 4.218 25.641 4.485L335.71 11.84a19.807 19.807 0 0119.37 19.83l.002 55.35c0 10.877-8.698 19.829-19.577 20.148l-310.048 9.095c-11.21.329-20.428-8.614-20.431-19.822z" fill="#FF8D07"/><path d="M4.029 93.444l-.023-71.799C4.002 10.352 13.35 1.223 24.643 1.49l310.066 7.363c10.795.256 19.37 9.034 19.371 19.83l.004 55.35c.001 10.878-8.697 19.829-19.576 20.148l-310.047 9.086c-11.21.328-20.429-8.615-20.432-19.823z" stroke="#000"/></svg>