<svg width="655" height="200" viewBox="0 0 655 200" fill="none" xmlns="http://www.w3.org/2000/svg"><path d="M642.971 161.7l-.003-136.588c0-11.311-9.37-20.332-20.673-19.901L33.053 27.659c-9.876.377-18.027 7.909-19.185 17.729l-8.783 74.458c-1.338 11.343 7.066 21.462 18.451 22.218l598.028 39.681c11.571.767 21.407-8.443 21.407-20.045z" fill="#FF8D07"/><path d="M651.063 157.227l.001-136.538c0-11.312-9.37-20.332-20.673-19.901L40.769 23.25c-9.874.376-18.025 7.907-19.185 17.726l-8.788 74.425c-1.34 11.344 7.065 21.465 18.452 22.219l598.409 39.651c11.57.767 21.406-8.444 21.406-20.045z" stroke="#000"/></svg>