<svg width="654" height="145" viewBox="0 0 654 145" fill="none" xmlns="http://www.w3.org/2000/svg"><path d="M7.038 123.604V41.201c0-10.82 8.606-19.679 19.422-19.992L633.422 3.648C644.689 3.322 654 12.368 654 23.64v58.989c0 10.522-8.154 19.245-18.653 19.954L28.385 143.559c-11.55.78-21.347-8.379-21.347-19.955z" fill="#FF8D07"/><path d="M1 120.552V38.148c0-10.82 8.606-19.679 19.422-19.992L627.383.596c11.268-.327 20.579 8.719 20.579 19.991v58.989c0 10.523-8.154 19.246-18.653 19.955L22.347 140.506C10.797 141.286 1 132.128 1 120.552z" stroke="#000"/></svg>