<svg width="358" height="146" viewBox="0 0 358 146" fill="none" xmlns="http://www.w3.org/2000/svg"><path d="M4.642 119.077l-.097-78.83c-.013-10.88 8.68-19.87 19.564-20.23L333.74 9.74c11.21-.372 20.434 8.532 20.448 19.737l.1 81.632c.013 10.95-8.789 19.971-19.745 20.235l-309.635 7.474c-11.14.269-20.253-8.608-20.267-19.742z" fill="#FF8D07"/><path d="M3.71 116.778l-.1-78.895c-.014-10.879 8.678-19.868 19.56-20.229l309.65-10.27c11.21-.372 20.435 8.533 20.45 19.738l.104 81.698c.014 10.95-8.787 19.97-19.742 20.234l-309.653 7.467c-11.14.269-20.254-8.609-20.268-19.743z" stroke="#000"/></svg>