<svg width="655" height="200" viewBox="0 0 655 200" fill="none" xmlns="http://www.w3.org/2000/svg">
<path d="M642.971 161.7L642.968 25.1118C642.968 13.8005 633.598 4.78007 622.295 5.21067L33.0525 27.6592C23.1773 28.0355 15.026 35.568 13.8677 45.3877L5.08522 119.846C3.74737 131.189 12.1513 141.308 23.5361 142.064L621.564 181.745C633.135 182.512 642.971 173.302 642.971 161.7Z" fill="#FF8D07"/>
<path d="M651.063 157.227L651.064 20.6889C651.064 9.37749 641.694 0.356981 630.391 0.787584L40.7689 23.2506C30.8945 23.6268 22.7435 31.1581 21.5841 40.9768L12.7957 115.402C11.4561 126.746 19.8612 136.867 31.2476 137.621L629.657 177.272C641.227 178.039 651.063 168.828 651.063 157.227Z" stroke="black"/>
</svg>
