<svg width="654" height="145" viewBox="0 0 654 145" fill="none" xmlns="http://www.w3.org/2000/svg">
<path d="M7.03833 123.604V41.2007C7.03833 30.3802 15.644 21.522 26.4599 21.209L633.422 3.648C644.689 3.322 654 12.3673 654 23.6396V82.6285C654 93.1513 645.846 101.874 635.347 102.583L28.3855 143.559C16.8358 144.339 7.03833 135.18 7.03833 123.604Z" fill="#FF8D07"/>
<path d="M1 120.552V38.1481C1 27.3276 9.60563 18.4694 20.4216 18.1564L627.383 0.595389C638.651 0.269387 647.962 9.31473 647.962 20.587V79.5759C647.962 90.0987 639.808 98.8217 629.309 99.5305L22.3471 140.506C10.7975 141.286 1 132.128 1 120.552Z" stroke="black"/>
</svg>
