<svg width="660" height="198" viewBox="0 0 660 198" fill="none" xmlns="http://www.w3.org/2000/svg"><path d="M37.878 165.772L16.31 53.627c-2.35-12.224 6.916-23.6 19.362-23.77l601.254-8.207c11.162-.152 20.29 8.862 20.278 20.025l-.091 82.397c-.011 10.528-8.182 19.243-18.687 19.931L58.83 181.957c-10.064.659-19.047-6.279-20.952-16.185z" fill="#FF8D07"/><path d="M29.71 159.553L8.159 47.823C5.8 35.595 15.069 24.21 27.52 24.042l601.143-8.144c11.161-.152 20.288 8.862 20.276 20.024l-.085 82.062c-.011 10.53-8.185 19.246-18.692 19.931L50.655 175.728c-10.058.656-19.036-6.277-20.945-16.175z" stroke="#000"/></svg>