<svg width="244" height="168" viewBox="0 0 244 168" fill="none" xmlns="http://www.w3.org/2000/svg">
<path fill-rule="evenodd" clip-rule="evenodd" d="M244 37L0 44.4712L14.2102 148H165.171L212 168L195.472 148H239.494L244 37Z" fill="white"/>
<path d="M229.144 3.16366L219.647 24.6771C223.659 18.6019 237.238 5.799 236.462 4.1555C235.841 2.84069 231.325 2.94644 229.144 3.16366Z" fill="white"/>
<path d="M189.986 7.09467L187.633 24.0239C187.493 18.7241 184.1 5.55743 185.188 4.84994C186.059 4.28396 188.75 6.1106 189.986 7.09467Z" fill="white"/>
<path d="M146.858 13.0589L150.829 24.937C148.835 22.1727 141.272 18.6183 141.954 17.045C142.499 15.7864 145.451 13.8632 146.858 13.0589Z" fill="white"/>
</svg>
