<svg width="631" height="121" viewBox="0 0 631 121" fill="none" xmlns="http://www.w3.org/2000/svg"><path d="M553.378 12.99L166.51 5.968l7.144 104.325h357.194l22.53-97.303z" fill="#100F0D"/><path d="M115.649 22.071c23.443 3.974 71.057 12.093 73.975 12.774v48.543l-44.281-18.736-7.293 18.736-38.029-18.736v18.736L0 44.639 71.89 55.71V41.233l49.49 11.07-5.731-30.232z" fill="#100F0D"/><path d="M27.337 44.055l39.764 6.623v-16.56l45.563 9.937-4.142-28.98 52.19 10.764M173.966 1l387.697 5.796-25.681 90.25" stroke="#000"/><path d="M623.316 17.523l-42.872 4.142c13.29-2.957 45.852-16.068 47.792-14.367 1.551 1.36-2.634 7.383-4.92 10.225zm-4.29 56.292l-41.112-12.84c13.395 2.439 48.495 3.01 49.621 5.33.901 1.856-5.298 5.78-8.509 7.51zm-34.633 45.458l-19.718-16.581c6.877 4.072 26.404 10.306 26.434 12.261.024 1.564-4.467 3.532-6.716 4.32z" fill="#100F0D"/></svg>