<svg width="725" height="171" viewBox="0 0 725 171" fill="none" xmlns="http://www.w3.org/2000/svg"><path d="M98.3 7.808L511.085 18.84 503.547 163H126.653L98.3 7.808z" fill="#fff"/><path d="M579.773 37.964c-29.438 6.864-89.229 20.888-92.893 22.065v83.848l55.605-32.363 9.159 32.363 47.755-32.363v32.363L725 76.946l-90.276 19.123V71.06l-62.147 19.124 7.196-52.221z" fill="#fff"/><path d="M127.689 155.879l-4.497-2.888L93.002 1l406.927 12.997 4.818 3.61m9.838 31.048c2.422-2.723 50.963-13.616 74.931-18.722l-6.055 51.06 58.28-17.02v22.126l70.391-11.063" stroke="#fff"/><path d="M16.599 12.689l29.104 18.043c-8.07-6.975-24.5-28.91-26.892-28.166-1.913.594-2.272 6.996-2.212 10.123zM7.868 64.567l43.901 4.26C38.16 65.785 4.817 52.3 2.83 54.049c-1.589 1.4 2.697 7.595 5.038 10.518zm4.393 57.9l42.099-13.206c-13.717 2.508-49.66 3.095-50.812 5.481-.923 1.91 5.425 5.946 8.713 7.725zm35.464 46.757l20.19-17.055c-7.04 4.189-27.036 10.6-27.067 12.611-.024 1.609 4.574 3.633 6.877 4.444z" fill="#fff"/></svg>