<svg viewBox="0 0 895 176" fill="none" xmlns="http://www.w3.org/2000/svg" preserveAspectRatio="none"><path d="M112.856 8.008l671.273 11.357-12.258 148.4H158.963L112.856 8.008z" fill="#000"/><path d="M160.648 160.435l-7.312-2.973L104.24 1l661.748 13.38 7.835 3.716" stroke="#000"/><path d="M17.067 13.033L46.99 31.607c-8.296-7.18-25.19-29.76-27.649-28.995-1.967.612-2.336 7.202-2.274 10.42zM8.09 66.436l45.137 4.386C39.235 67.69 4.952 53.809 2.91 55.61c-1.634 1.44 2.773 7.818 5.18 10.826zm4.517 59.604l43.284-13.595c-14.103 2.582-51.058 3.186-52.243 5.643-.949 1.966 5.577 6.12 8.959 7.952zm36.463 48.131l20.759-17.555c-7.24 4.311-27.799 10.911-27.83 12.981-.025 1.656 4.703 3.74 7.07 4.574zM877.933 13.033L848.01 31.607c8.296-7.18 25.19-29.76 27.649-28.995 1.967.612 2.336 7.202 2.274 10.42zm8.977 53.403l-45.137 4.386c13.992-3.131 48.275-17.013 50.317-15.212 1.634 1.44-2.773 7.818-5.18 10.826zm-4.517 59.604l-43.284-13.595c14.103 2.582 51.058 3.186 52.243 5.643.949 1.966-5.577 6.12-8.959 7.952zm-36.462 48.131l-20.76-17.555c7.24 4.311 27.799 10.911 27.83 12.981.025 1.656-4.703 3.74-7.07 4.574z" fill="#000"/></svg>