<svg width="631" height="121" viewBox="0 0 631 121" fill="none" xmlns="http://www.w3.org/2000/svg">
<path d="M553.378 12.9899L166.51 5.96802L173.654 110.293H530.848L553.378 12.9899Z" fill="#100F0D"/>
<path d="M115.649 22.071C139.092 26.0453 186.706 34.1641 189.624 34.8454V83.3878L145.343 64.6521L138.05 83.3878L100.021 64.6521V83.3878L-0.000152588 44.639L71.8902 55.7101V41.2325L121.38 52.3036L115.649 22.071Z" fill="#100F0D"/>
<path d="M27.3374 44.0547L67.1012 50.6785V34.1189L112.664 44.0547L108.522 15.0754L160.712 25.8392" stroke="black"/>
<path d="M173.966 1L561.663 6.79585L535.982 97.0455" stroke="black"/>
<path d="M623.316 17.5228L580.444 21.6647C593.734 18.7078 626.296 5.59694 628.236 7.29754C629.787 8.65802 625.602 14.6812 623.316 17.5228Z" fill="#100F0D"/>
<path d="M619.026 73.8146L577.914 60.9754C591.309 63.414 626.409 63.9843 627.535 66.3048C628.436 68.1611 622.237 72.0848 619.026 73.8146Z" fill="#100F0D"/>
<path d="M584.393 119.273L564.675 102.692C571.552 106.764 591.079 112.998 591.109 114.953C591.133 116.517 586.642 118.485 584.393 119.273Z" fill="#100F0D"/>
</svg>
